<svg width="1200" height="1000" viewBox="-100 -50 1100 950" fill="none" xmlns="http://www.w3.org/2000/svg">
<g filter="url(#filter0_f_83_3967)">
<path d="M637.098 604.86C582.469 626.167 473.122 588.867 414.225 550.074C355.329 511.282 285.276 419.757 283.719 372.105C282.161 324.453 344.486 295.103 404.881 264.164C465.276 233.224 589.901 160.123 646.087 186.467C702.274 212.812 743.496 352.499 741.998 422.231" fill="url(#paint0_linear_83_3967)" fill-opacity="0.6"/>
</g>
<g filter="url(#filter1_f_83_3967)">
<path d="M583.353 680.41C525.659 699.936 387.717 675.628 320.591 635.828C253.465 596.028 179.383 508.526 180.597 441.611C181.811 374.696 266.881 259.665 327.877 234.337C388.872 209.009 490.09 242.254 546.57 289.643C603.049 337.032 660.623 453.544 666.753 518.672" fill="url(#paint1_linear_83_3967)" fill-opacity="0.6"/>
</g>
<defs>
<filter id="filter0_f_83_3967" x="103.69" y="0.846191" width="818.347" height="790.222" filterUnits="userSpaceOnUse" color-interpolation-filters="sRGB">
<feFlood flood-opacity="0" result="BackgroundImageFix"/>
<feBlend mode="normal" in="SourceGraphic" in2="BackgroundImageFix" result="shape"/>
<feGaussianBlur stdDeviation="90" result="effect1_foregroundBlur_83_3967"/>
</filter>
<filter id="filter1_f_83_3967" x="0.582275" y="45.6073" width="846.171" height="821.679" filterUnits="userSpaceOnUse" color-interpolation-filters="sRGB">
<feFlood flood-opacity="0" result="BackgroundImageFix"/>
<feBlend mode="normal" in="SourceGraphic" in2="BackgroundImageFix" result="shape"/>
<feGaussianBlur stdDeviation="90" result="effect1_foregroundBlur_83_3967"/>
</filter>
<linearGradient id="paint0_linear_83_3967" x1="512.864" y1="180.846" x2="512.864" y2="611.068" gradientUnits="userSpaceOnUse">
<stop stop-color="#9D80FF"/>
<stop offset="1" stop-color="#FF80E1"/>
</linearGradient>
<linearGradient id="paint1_linear_83_3967" x1="424.042" y1="225.607" x2="424.042" y2="687.286" gradientUnits="userSpaceOnUse">
<stop stop-color="#FF9780"/>
<stop offset="1" stop-color="#E8FF80"/>
</linearGradient>
</defs>
</svg>
